<?xml version="1.0" encoding="utf-8"?>
<!-- Generator: Adobe Illustrator 25.2.1, SVG Export Plug-In . SVG Version: 6.00 Build 0)  -->
<svg version="1.1"
	 id="svg2" xmlns:cc="http://creativecommons.org/ns#" xmlns:dc="http://purl.org/dc/elements/1.1/" xmlns:rdf="http://www.w3.org/1999/02/22-rdf-syntax-ns#" xmlns:svg="http://www.w3.org/2000/svg"
	 xmlns="http://www.w3.org/2000/svg" xmlns:xlink="http://www.w3.org/1999/xlink" x="0px" y="0px" viewBox="0 0 220 270"
	 style="enable-background:new 0 0 220 270;" xml:space="preserve">
<style type="text/css">
	.st0{fill:#9EBBBD;}
</style>
<g id="layer1" transform="translate(-345.19429,-399.56217)">
	<path id="path2990" class="st0" d="M392.3,406.4c10.7,0,19.2,4.5,25.3,13.4c6.4,8.6,10,20.4,10.7,35.5v56.4h15l25.3,25.8h-40.3
		v73.1c0,5.7,2.1,10.9,6.4,15.6c4.3,4.7,11.3,7,21,7c12.5,0,25.8-7,39.8-21c14.3-14.3,21.8-29,22.6-44.1l-6.4,0.5
		c-22.9,0-34.4-12.2-34.4-36.5c0-8.2,2.7-15.6,8.1-22c5.4-6.4,14.3-9.7,26.9-9.7c13.3,0,24.4,5.7,33.3,17.2
		c9.3,11.5,14,25.4,14,41.9c0,24.4-10.4,47.6-31.2,69.8c-20.4,22.2-44.8,33.3-73.1,33.3c-10.4,0-21.5-4.5-33.3-13.4
		c-11.5-9.3-18.3-18.3-20.4-26.9v-84.9h-25.8L351,511.7h50.5v-51c0-10.4-6.3-16.5-18.8-18.3c-5.7,0-9.5,0.9-11.3,2.7
		c-3.2-5.4-6.3-11.8-9.1-19.3v-2.7c0-4.7,3.6-8.6,10.7-11.8C380.2,408,386.6,406.4,392.3,406.4"/>
</g>
</svg>
